<svg width="361" height="361" viewBox="0 0 361 361" fill="none" xmlns="http://www.w3.org/2000/svg">

<path fill-rule="evenodd" clip-rule="evenodd" d="M183.548 110.383L180.5 0L177.452 110.383C177.212 119.087 175.365 127.386 172.196 134.994C161.685 132.299 152.043 125.64 145.81 115.046L126.633 82.4513L144.515 115.774C156.88 138.816 146.009 165.785 124.377 175.634C119.868 176.697 115.187 177.319 110.383 177.452L0 180.5L110.383 183.548C115.327 183.684 120.141 184.339 124.771 185.461C145.829 195.982 155.818 222.944 143.031 245.518L124.392 278.423L144.309 246.275C151.051 235.394 161.391 228.863 172.461 226.652C175.468 234.083 177.219 242.159 177.452 250.617L180.5 361L183.548 250.617C183.784 242.083 185.564 233.939 188.619 226.454C200.41 228.507 211.468 235.41 218.359 247.122L237.536 279.717L219.654 246.394C205.7 220.391 221.337 189.388 248.636 183.631C249.294 183.594 249.954 183.566 250.617 183.548L292.038 182.404L295.228 182.378L294.174 182.345L361 180.5L250.617 177.452C246.266 177.332 242.015 176.81 237.902 175.922C217.874 164.895 208.657 138.683 221.138 116.65L239.777 83.7454L219.86 115.893C212.612 127.59 201.206 134.259 189.206 135.941C185.792 128.076 183.798 119.449 183.548 110.383Z" fill="white"/>
</svg>
