<svg width="340" height="340" viewBox="0 0 340 340" fill="none" xmlns="http://www.w3.org/2000/svg">
<path fill-rule="evenodd" clip-rule="evenodd" d="M148.521 146.625L18.3599 81.214L141.497 164.313L81.367 159.834L138.452 168.589L0 214.428L145.765 186.129L100.179 225.395L146.74 191.217L81.214 321.607L164.307 198.478L159.84 258.451L168.577 201.48L214.428 339.967L186.09 194.001L225.4 239.639L191.399 193.319L321.607 258.753L198.23 175.492L258.457 179.978L201.788 171.287L339.967 125.539L193.786 153.918L239.645 114.418L193.434 148.339L258.753 18.3599L175.486 141.746L179.984 81.3613L171.276 138.143L125.539 0L153.879 145.98L114.423 100.173L148.521 146.625Z" fill="white"/>
</svg>
