<svg width="361" height="361" viewBox="0 0 361 361" fill="none" xmlns="http://www.w3.org/2000/svg">
<mask id="path-1-inside-1_102_35" fill="white">
<path fill-rule="evenodd" clip-rule="evenodd" d="M205.468 134.804L180.5 0L155.594 134.47L97.4843 98.1298L133.224 155.825L0 180.5L134.262 205.367L97.1297 264.744L155.926 228.322L180.5 361L205.059 228.4L263.744 265.099L226.742 205.366L361 180.5L228.192 155.902L264.099 98.4844L205.468 134.804Z"/>
</mask>
<path d="M180.5 0L190.333 -1.82117L170.667 -1.82117L180.5 0ZM205.468 134.804L195.635 136.625L198.299 151.008L210.734 143.305L205.468 134.804ZM155.594 134.47L150.292 142.948L162.751 150.74L165.427 136.291L155.594 134.47ZM97.4843 98.1298L102.786 89.6512L88.9832 103.396L97.4843 98.1298ZM133.224 155.825L135.045 165.658L149.428 162.994L141.725 150.559L133.224 155.825ZM0 180.5L-1.82117 170.667V190.333L0 180.5ZM134.262 205.367L142.74 210.669L150.532 198.211L136.083 195.534L134.262 205.367ZM97.1297 264.744L88.6511 259.442L102.396 273.245L97.1297 264.744ZM155.926 228.322L165.759 226.501L163.095 212.118L150.66 219.821L155.926 228.322ZM180.5 361L170.667 362.821H190.333L180.5 361ZM205.059 228.4L210.362 219.921L197.903 212.13L195.227 226.579L205.059 228.4ZM263.744 265.099L258.442 273.577L272.245 259.833L263.744 265.099ZM226.742 205.366L224.921 195.534L210.538 198.198L218.241 210.632L226.742 205.366ZM361 180.5L362.821 190.333V170.667L361 180.5ZM228.192 155.902L219.713 150.6L211.922 163.059L226.371 165.735L228.192 155.902ZM264.099 98.4844L272.577 103.787L258.833 89.9833L264.099 98.4844ZM170.667 1.82117L195.635 136.625L215.3 132.983L190.333 -1.82117L170.667 1.82117ZM165.427 136.291L190.333 1.82117L170.667 -1.82117L145.762 132.648L165.427 136.291ZM92.1821 106.608L150.292 142.948L160.897 125.991L102.786 89.6512L92.1821 106.608ZM141.725 150.559L105.985 92.8638L88.9832 103.396L124.723 161.091L141.725 150.559ZM1.82117 190.333L135.045 165.658L131.403 145.992L-1.82117 170.667L1.82117 190.333ZM136.083 195.534L1.82117 170.667L-1.82117 190.333L132.441 215.2L136.083 195.534ZM105.608 270.046L142.74 210.669L125.783 200.065L88.6511 259.442L105.608 270.046ZM150.66 219.821L91.8636 256.243L102.396 273.245L161.192 236.823L150.66 219.821ZM190.333 359.179L165.759 226.501L146.093 230.143L170.667 362.821L190.333 359.179ZM195.227 226.579L170.667 359.179L190.333 362.821L214.892 230.221L195.227 226.579ZM269.046 256.62L210.362 219.921L199.757 236.878L258.442 273.577L269.046 256.62ZM218.241 210.632L255.243 270.365L272.245 259.833L235.244 200.1L218.241 210.632ZM359.179 170.667L224.921 195.534L228.564 215.199L362.821 190.333L359.179 170.667ZM226.371 165.735L359.179 190.333L362.821 170.667L230.013 146.069L226.371 165.735ZM255.62 93.1823L219.713 150.6L236.67 161.204L272.577 103.787L255.62 93.1823ZM210.734 143.305L269.365 106.986L258.833 89.9833L200.202 126.303L210.734 143.305Z" fill="white" mask="url(#path-1-inside-1_102_35)"/>
</svg>
